PathFileType	4	(X/Y/Z)	C:/Users/opensim2020/Desktop/walking_exp_matlab/subject03_walking07_straight_02.trc																																																																																																																																								
DataRate	CameraRate	NumFrames	NumMarkers	Units	OrigDataRate	OrigDataStartFrame	OrigNumFrames																																																																																																																																				
100	100	5	46	mm	100	1498	252																																																																																																																																				
Frame#	Time	LFHD			RFHD			LBHD			RBHD			C7			T10			CLAV			STRN			RBAK			LSHO			LUPA			LELB			LFRM			LWRA			LWRB			LFIN			RSHO			RUPA			RELB			RFRM			RWRA			RWRB			RFIN			LASI			RASI			LPSI			RPSI			LTHI			LKNE			LTIB			LANK			LHEE			LTOE			RTHI			RKNE			RTIB			RANK			RHEE			RTOE			*39			*40			*41			*42			*43			*44			*45		
		X1	Y1	Z1	X2	Y2	Z2	X3	Y3	Z3	X4	Y4	Z4	X5	Y5	Z5	X6	Y6	Z6	X7	Y7	Z7	X8	Y8	Z8	X9	Y9	Z9	X10	Y10	Z10	X11	Y11	Z11	X12	Y12	Z12	X13	Y13	Z13	X14	Y14	Z14	X15	Y15	Z15	X16	Y16	Z16	X17	Y17	Z17	X18	Y18	Z18	X19	Y19	Z19	X20	Y20	Z20	X21	Y21	Z21	X22	Y22	Z22	X23	Y23	Z23	X24	Y24	Z24	X25	Y25	Z25	X26	Y26	Z26	X27	Y27	Z27	X28	Y28	Z28	X29	Y29	Z29	X30	Y30	Z30	X31	Y31	Z31	X32	Y32	Z32	X33	Y33	Z33	X34	Y34	Z34	X35	Y35	Z35	X36	Y36	Z36	X37	Y37	Z37	X38	Y38	Z38	X39	Y39	Z39	X40	Y40	Z40	X41	Y41	Z41	X42	Y42	Z42	X43	Y43	Z43	X44	Y44	Z44	X45	Y45	Z45	X46	Y46	Z46
																																																																																																																																											
32	0.31	-818.80072	1597.45886	927.45673	-833.52148	1606.71069	1059.3562	-949.99042	1564.72705	918.43298	-959.76453	1573.07739	1048.82495	-997.07764	1407.0625	974.79138	-1041.40198	1093.50903	978.34875	-879.85809	1324.375	989.87244	-841.22913	1158.97046	986.11218	-1067.54944	1231.79407	1063.36279	-904.32068	1363.67651	831.32043	-866.27051	1176.97156	755.76245	-818.83917	1064.12476	746.41754	-736.15326	967.93555	764.47144	-664.19379	882.82104	812.84729	-678.25378	869.33905	760.79999	-618.66687	814.90137	782.31415	-942.82434	1349.35876	1143.10864	-962.58807	1127.5957	1216.41321	-953.49261	1015.66608	1232.10925	-941.37604	879.34161	1236.28674	-910.29395	783.25482	1204.81165	-946.38013	779.05011	1245.33032	-924.80231	707.18872	1236.8374	-874.09088	929.75525	865.89813	-876.24872	929.05298	1105.53369	-1036.45056	951.46509	916.35956	-1037.48792	951.62976	1064.57996	-957.04889	630.57159	840.3974	-982.31934	455.21982	882.94922	-1064.64014	274.93576	886.67249	-1113.56787	69.98876	934.75073	-1155.58337	37.63471	972.6701	-962.5752	29.34667	951.93408	-858.58588	639.10187	1158.44971	-776.13275	479.11914	1127.56067	-779.21808	290.16721	1134.84229	-752.62366	73.60186	1095.39868	-786.83246	36.42687	1039.69238	-609.55432	52.71014	1085.02209	NaN	NaN	NaN	-899.38177	1669.60547	965.93243	NaN	NaN	NaN	NaN	NaN	NaN	NaN	NaN	NaN	NaN	NaN	NaN	NaN	NaN	NaN
33	0.32	-809.55481	1596.43164	928.37402	-824.44977	1605.47974	1060.2583	-940.67169	1563.31665	919.15948	-950.56799	1571.54333	1049.58582	-987.63196	1405.79041	975.43719	-1031.91553	1092.16516	979.26807	-870.50153	1323.10596	990.42426	-831.76404	1157.47791	986.65656	-1057.96985	1230.27588	1063.72961	-894.63525	1362.20288	831.96777	-856.18384	1175.62988	756.27362	-808.40082	1063.06274	746.9339	-724.78137	967.92328	765.76215	-652.25275	883.81409	815.01947	-665.68872	870.07745	762.65161	-605.54584	816.53595	784.73828	-933.59497	1347.94775	1143.8562	-954.49323	1126.17542	1216.70215	-945.91022	1014.1062	1232.40637	-934.26324	877.75043	1236.49194	-903.203	781.64899	1205.17822	-939.70819	777.45111	1245.30847	-918.14758	705.45886	1236.99524	-864.8739	928.49768	866.39099	-866.20129	927.47986	1105.9613	-1027.20508	950.18823	917.37219	-1027.578	950.05328	1065.5863	-949.92279	629.92468	840.6062	-977.0191	454.75815	882.94604	-1061.81824	275.36771	886.67419	-1113.12415	70.79836	934.58411	-1155.23535	38.74269	972.78394	-962.48407	29.24342	951.90698	-851.60876	636.49396	1158.85486	-768.22308	476.90518	1126.58472	-764.31018	289.09424	1134.67786	-727.27747	73.65809	1096.36902	-760.4082	35.90567	1040.58533	-583.18005	55.85064	1085.31287	NaN	NaN	NaN	-890.53784	1668.39478	967.05505	NaN	NaN	NaN	NaN	NaN	NaN	NaN	NaN	NaN	NaN	NaN	NaN	NaN	NaN	NaN
34	0.33	-800.22198	1595.46436	929.2757	-815.26477	1604.31433	1061.16577	-931.2663	1562.04321	919.96802	-941.21857	1570.03979	1050.29834	-977.99261	1404.48718	976.10071	-1022.33496	1090.87781	980.24438	-860.71368	1321.67505	991.25507	-822.14954	1156.22266	987.23486	-1048.30591	1228.8291	1064.21863	-884.96411	1360.74011	832.63135	-846.24078	1174.30103	756.91016	-798.00171	1062.01062	747.53564	-713.63971	967.71191	767.13409	-640.74255	884.45575	817.09436	-653.52081	870.50757	764.47266	-592.95813	817.84882	787.05786	-924.20111	1346.59998	1144.599	-946.19366	1124.82068	1217.02673	-938.16766	1012.69092	1232.71716	-927.02734	876.21674	1236.69995	-895.9895	780.11047	1205.55188	-932.88104	775.99194	1245.31116	-911.40106	703.96527	1237.22278	-855.70465	927.33777	867.138	-855.89453	925.89026	1106.36633	-1017.83496	948.95465	918.52155	-1017.5661	948.62335	1066.74146	-942.68396	629.26556	840.80652	-971.54352	454.30765	882.89392	-1058.80676	275.87747	886.57697	-1112.70557	71.78492	934.46631	-1155.15625	40.29328	972.49158	-962.3587	29.13671	951.85229	-844.46497	633.97107	1159.53955	-760.38794	474.60779	1125.77429	-750.15381	288.27103	1134.35901	-704.15723	74.20527	1097.02283	-736.04413	35.83995	1041.15027	-559.08368	59.50703	1085.58899	NaN	NaN	NaN	-881.4505	1666.99585	967.92078	NaN	NaN	NaN	NaN	NaN	NaN	NaN	NaN	NaN	NaN	NaN	NaN	NaN	NaN	NaN
35	0.34	-790.88397	1594.54431	930.21448	-806.00739	1603.25708	1062.1626	-921.79144	1560.88257	920.75787	-931.85461	1568.7041	1051.09021	-968.23901	1403.25671	976.76361	-1012.64557	1089.67236	981.31195	-851.01129	1320.53406	991.95062	-812.43604	1155.03625	987.85724	-1038.51746	1227.46045	1064.77942	-875.15405	1359.37891	833.37823	-836.3349	1173.07642	757.58575	-787.6261	1060.94055	748.14362	-702.86444	967.35229	768.44617	-629.64545	884.68854	818.9657	-641.92444	870.73553	766.24426	-580.87158	818.76367	789.22424	-914.65723	1345.38196	1145.37256	-937.63733	1123.52002	1217.37903	-930.1839	1011.32013	1232.9884	-919.60645	874.83612	1236.91418	-888.59485	778.64862	1205.96301	-925.91211	774.60645	1245.32019	-904.66345	702.55518	1237.39758	-846.15259	926.23169	867.38757	-845.51208	924.47699	1106.72485	-1008.41516	947.78943	919.82654	-1007.43707	947.33331	1068.02637	-935.41711	628.71808	840.98602	-965.76221	453.89917	882.76813	-1055.56506	276.47647	886.42438	-1112.17834	72.85941	934.1377	-1154.70056	41.90442	972.5343	-962.25024	29.01853	951.79321	-836.8833	631.80804	1160.28308	-752.62567	472.27618	1125.19666	-736.68567	287.49472	1133.91479	-683.26672	74.96115	1096.953	-713.97589	36.11034	1041.07434	-537.40344	63.39555	1085.70996	NaN	NaN	NaN	-872.34381	1665.74438	969.0011	NaN	NaN	NaN	NaN	NaN	NaN	NaN	NaN	NaN	NaN	NaN	NaN	NaN	NaN	NaN
36	0.35	-781.37579	1593.70667	931.11414	-796.62689	1602.34375	1063.11108	-912.38458	1559.77844	921.53156	-922.43561	1567.49646	1051.9325	-958.49622	1402.17017	977.52802	-1002.80029	1088.6145	982.46558	-841.36682	1319.69348	992.53149	-802.59039	1153.92432	988.46466	-1028.52759	1226.19995	1065.43555	-865.32251	1358.1814	834.15698	-826.4397	1171.90649	758.36548	-777.55048	1059.87646	749.22015	-692.29901	966.87585	769.80316	-618.98633	884.62781	820.80243	-630.75153	870.64044	767.90552	-569.46539	819.31	791.14795	-904.96857	1344.30237	1146.18359	-928.89728	1122.42847	1217.76062	-921.974	1010.15521	1233.29956	-911.94495	873.54828	1237.12268	-881.01593	777.14868	1206.28845	-918.73492	773.31317	1245.26331	-897.83661	701.35291	1237.59253	-836.69904	925.17413	867.88446	-835.10236	923.28168	1107.00818	-998.79498	946.68652	921.22583	-997.11432	946.24921	1069.43164	-928.00873	628.22498	841.13635	-959.7403	453.40201	882.58264	-1052.12451	277.12131	886.24084	-1111.35547	74.06155	933.7406	-1154.41492	43.7118	972.09692	-962.02075	28.8212	951.66571	-828.71356	630.04871	1161.06409	-744.70148	470.16776	1124.78076	-724.22919	286.83182	1133.37598	-664.95428	75.77507	1096.32813	-694.36444	36.38548	1040.33667	-518.34863	67.00938	1085.69397	NaN	NaN	NaN	-862.91718	1664.77271	969.987	NaN	NaN	NaN	NaN	NaN	NaN	NaN	NaN	NaN	NaN	NaN	NaN	NaN	NaN	NaN
